<svg xmlns="http://www.w3.org/2000/svg" width="42.867" height="165.963" viewBox="0 0 42.867 165.963"><defs><style>.a{fill:#fff;stroke:rgba(0,0,0,0);stroke-miterlimit:10;}</style></defs><path class="a" d="M29.128-717l10.281-6.854v-83.956L0-845.5H22.322a7.8,7.8,0,0,1-.047-.857,7.709,7.709,0,0,1,4.054-6.79l-10.07-28.359a.218.218,0,0,1,.132-.279l.4-.141a.22.22,0,0,1,.279.133l10.042,28.28a7.688,7.688,0,0,1,2.876-.554,7.711,7.711,0,0,1,7.71,7.71,7.8,7.8,0,0,1-.047.857h3.473V-717Z" transform="translate(1.246 882.46)"/></svg>