<svg xmlns="http://www.w3.org/2000/svg" width="45.631" height="113.084" viewBox="0 0 45.631 113.084"><defs><style>.a{fill:#fff;}.b,.f{fill:#a8a8a8;}.c,.d{fill:none;stroke-miterlimit:10;}.d{stroke:#a8a8a8;stroke-width:0.889px;}.e,.f{stroke:none;}</style></defs><g transform="translate(0 3.968)"><ellipse class="a" cx="22.815" cy="6.944" rx="22.815" ry="6.944" transform="translate(0.001)"/><path class="a" d="M222.137,514c-11.492,0-20.971-2.588-22.557-5.953a2.359,2.359,0,0,0-.259.992c0,3.836,10.215,6.945,22.816,6.945s22.815-3.108,22.815-6.945a2.36,2.36,0,0,0-.259-.992C243.107,511.413,233.627,514,222.137,514Z" transform="translate(-199.321 -406.87)"/><path class="a" d="M222.137,459.852c-12.6,0-22.816-3.11-22.816-6.945v90.268h.259c1.586,3.364,11.065,5.953,22.557,5.953s20.969-2.588,22.555-5.953h.259V452.907C244.952,456.742,234.737,459.852,222.137,459.852Z" transform="translate(-199.321 -443.98)"/></g><path class="b" d="M220.638,452.914l-9.426,0c-1.962,0-3.58-.42-3.59-.934s1.589-.937,3.552-.937l5.323,0Z" transform="translate(-193.734 -441.267)"/><g class="c" transform="translate(-190.331 -445.199)"><path class="e" d="M217.234,456.846c9.436-9.8,4.862-11.647,4.862-11.647h-7.149c-3.574,0-1.854,9.775-1.854,9.775Z"/><path class="f" d="M 216.9826049804688 455.5604858398438 C 222.0055999755859 450.203125 222.2474975585938 447.7469177246094 222.1088409423828 446.9251403808594 C 222.0491333007813 446.5712890625 221.8979797363281 446.370849609375 221.7865905761719 446.26708984375 L 214.9470977783203 446.26708984375 C 214.7801666259766 446.26708984375 214.6359405517578 446.3064575195313 214.4745788574219 446.4985656738281 C 214.2176361083984 446.8045043945313 213.6343383789063 447.8681335449219 213.7668762207031 451.1295776367188 C 213.8185882568359 452.40234375 213.9652099609375 453.5794067382813 214.0600433349609 454.2391052246094 L 216.9826049804688 455.5604858398438 M 217.2340240478516 456.8464050292969 L 213.0933990478516 454.9742736816406 C 213.0933990478516 454.9742736816406 211.3735504150391 445.198974609375 214.9470977783203 445.198974609375 C 218.5222625732422 445.198974609375 222.0957489013672 445.198974609375 222.0957489013672 445.198974609375 C 222.0957489013672 445.198974609375 226.6697540283203 447.0476379394531 217.2340240478516 456.8464050292969 Z"/></g><line class="d" x2="5.938" y2="2.041" transform="translate(23.833 4.278)"/></svg>