<svg xmlns="http://www.w3.org/2000/svg" width="62.771" height="169.625" viewBox="0 0 62.771 169.625"><defs><style>.a{fill:#fff;}</style></defs><path class="a" d="M85.608,424.242h17.185a2.8,2.8,0,0,0,2.866-2.7v-5.4a2.793,2.793,0,0,0-2.866-2.7H85.608a2.792,2.792,0,0,0-2.864,2.7v5.4A2.793,2.793,0,0,0,85.608,424.242Z" transform="translate(-62.816 -413.451)"/><path class="a" d="M86.454,421.514a.278.278,0,0,0-.286.269v2.158a.254.254,0,0,0,.152.217.274.274,0,0,0,.134.052H97.339a.274.274,0,0,0,.134-.052.254.254,0,0,0,.152-.217v-2.158a.278.278,0,0,0-.286-.269Z" transform="translate(-60.512 -408.025)"/><path class="a" d="M79.172,484.684c.028.8.022,1.588-.015,2.356,6.809.652,13.65,1.019,20.469,1.072a229.608,229.608,0,0,0,24.076-1.069c-.035-.768-.043-1.554-.013-2.359.276-7.493,3.4-10.1,5.457-18.846,1.086-4.617,3.234-13.747,0-22.274-4.5-11.856-17.372-17.217-21.831-18.848H95.544c-4.459,1.631-17.334,6.991-21.831,18.848-3.232,8.527-1.086,17.657,0,22.274C75.77,474.584,78.894,477.191,79.172,484.684Z" transform="translate(-70.044 -405.87)"/><path class="a" d="M133.572,504.505a107.359,107.359,0,0,0-5.459-30.84A33.816,33.816,0,0,1,124.873,464c-7.535.723-15.112,1.1-22.667,1.1-.609,0-1.215,0-1.822-.007-6.938-.054-13.9-.427-20.824-1.091a33.761,33.761,0,0,1-3.239,9.658,107.346,107.346,0,0,0-5.457,30.84c-.253,9.845.979,17.269,5.457,44.548h51.793C132.592,521.774,133.823,514.351,133.572,504.505Z" transform="translate(-70.832 -379.429)"/></svg>